<svg xmlns="http://www.w3.org/2000/svg" viewBox="0 0 20 20">
<path fill="rgb(255,255,255)" d=" M 5.129 6.81 L 4.283 5.979 L 10 0 L 15.718 5.977 L 14.871 6.808 L 10.589 2.331 L 10.589 15.191 L 9.411 15.191 L 9.411 2.331 L 5.129 6.811 L 5.129 6.81 Z  M 18.816 10.482 L 18.816 18.209 C 18.816 18.538 18.554 18.805 18.23 18.805 L 1.764 18.805 C 1.44 18.805 1.178 18.538 1.178 18.209 L 1.178 10.475 L 0 10.475 L 0 18.209 C 0 19.196 0.792 20 1.764 20 L 18.236 20 C 19.208 20 20 19.196 20 18.209 L 20 10.481 L 18.822 10.481 L 18.816 10.482 Z "/>
</svg>