<svg xmlns="http://www.w3.org/2000/svg" viewBox="0 0 20 20">
<path fill="rgb(255,255,255)" d=" M 0 0 L 5.454 0 L 5.454 1.819 L 3.251 1.819 L 8.145 6.713 L 6.712 8.146 L 1.818 3.252 L 1.818 5.455 L 0 5.455 M 14.546 0 L 14.546 1.819 L 16.749 1.819 L 11.853 6.711 L 13.287 8.144 L 18.182 3.252 L 18.182 5.455 L 20 5.455 L 20 0 M 20 20 L 20 14.546 L 18.181 14.546 L 18.181 16.749 L 13.287 11.855 L 11.854 13.288 L 16.748 18.182 L 14.545 18.182 L 14.545 20 M 0 20 L 5.454 20 L 5.454 18.181 L 3.244 18.181 L 8.141 13.285 L 6.71 11.852 L 1.818 16.741 L 1.818 14.545 L 0 14.545"/>
</svg>