<svg xmlns="http://www.w3.org/2000/svg" viewBox="0 0 20 20">
<path fill="rgb(255,255,255)" d=" M 20 15.835 C 20 18.136 18.135 20.001 15.834 20.001 C 13.533 20.001 11.667 18.136 11.667 15.835 C 11.667 15.69 11.68 15.535 11.692 15.392 L 7.005 13.047 C 6.234 13.765 5.22 14.165 4.166 14.166 C 1.865 14.166 0 12.301 -0.001 10 C -0.001 7.699 1.864 5.834 4.165 5.833 C 5.259 5.833 6.261 6.262 7.003 6.952 L 11.69 4.609 L 11.665 4.166 C 11.667 1.861 13.532 -0.001 15.836 -0.001 C 18.14 -0.001 20 1.861 20 4.169 C 20.001 5.274 19.563 6.334 18.781 7.115 C 18 7.897 16.94 8.335 15.835 8.335 C 14.741 8.335 13.739 7.906 12.997 7.216 L 8.31 9.56 L 8.335 10.002 C 8.335 10.148 8.322 10.302 8.31 10.446 L 12.997 12.791 C 13.739 12.1 14.741 11.67 15.835 11.67 C 18.138 11.668 20 13.53 20 15.837 L 20 15.835 L 20 15.835 Z "/>
</svg>