<svg xmlns="http://www.w3.org/2000/svg" viewBox="0 0 20 20">
<path fill="rgb(255,255,255)" d=" M 0 8.75 L 8.75 8.75 L 8.75 0 L 0 0 L 0 8.75 Z  M 1.25 1.25 L 7.5 1.25 L 7.5 7.5 L 1.25 7.5 L 1.25 1.25 Z  M 11.25 0 L 11.25 8.75 L 20 8.75 L 20 0 L 11.25 0 Z  M 18.75 7.5 L 12.5 7.5 L 12.5 1.25 L 18.75 1.25 L 18.75 7.5 Z  M 0 20 L 8.75 20 L 8.75 11.25 L 0 11.25 L 0 20 Z  M 1.25 12.5 L 7.5 12.5 L 7.5 18.75 L 1.25 18.75 L 1.25 12.5 Z  M 11.25 20 L 20 20 L 20 11.25 L 11.25 11.25 L 11.25 20 Z  M 12.5 12.5 L 18.75 12.5 L 18.75 18.75 L 12.5 18.75 L 12.5 12.5 Z "/>
</svg>