<svg xmlns="http://www.w3.org/2000/svg" viewBox="0 0 20 20">
<path fill="rgb(255,255,255)" d=" M 17.945 5.926 C 17.957 6.105 17.957 6.282 17.957 6.461 C 17.957 11.878 13.833 18.122 6.295 18.122 C 3.973 18.122 1.815 17.449 0 16.282 C 0.331 16.319 0.648 16.331 0.991 16.331 C 2.907 16.331 4.669 15.685 6.079 14.581 C 4.276 14.543 2.767 13.362 2.247 11.737 C 2.5 11.775 2.755 11.801 3.019 11.801 C 3.388 11.801 3.756 11.75 4.099 11.662 C 2.221 11.281 0.812 9.631 0.812 7.639 C 0.812 7.626 0.812 7.601 0.812 7.589 C 1.357 7.893 1.992 8.083 2.665 8.109 C 1.561 7.373 0.837 6.115 0.837 4.695 C 0.837 3.935 1.041 3.235 1.396 2.626 C 3.415 5.115 6.447 6.739 9.848 6.915 C 9.784 6.611 9.745 6.294 9.745 5.975 C 9.745 3.718 11.575 1.878 13.845 1.878 C 15.025 1.878 16.091 2.373 16.84 3.173 C 17.765 2.995 18.653 2.653 19.441 2.183 C 19.136 3.135 18.489 3.935 17.639 4.441 C 18.465 4.353 19.264 4.125 20 3.806 C 19.441 4.618 18.744 5.343 17.945 5.926 Z "/>
</svg>