<svg xmlns="http://www.w3.org/2000/svg" viewBox="0 0 20 20">
<path fill="rgb(255,255,255)" d=" M 1.446 10 C 1.447 7.732 2.35 5.557 3.955 3.955 C 5.56 2.349 7.737 1.447 10.007 1.446 C 12.275 1.449 14.449 2.351 16.052 3.955 C 17.658 5.557 18.56 7.732 18.561 10 C 18.561 12.27 17.658 14.447 16.052 16.052 C 14.447 17.658 12.271 18.554 10.008 18.554 C 7.737 18.554 5.561 17.657 3.956 16.052 C 2.35 14.446 1.446 12.271 1.446 10 L 1.446 10 Z  M 0 10 C -0.001 7.346 1.056 4.801 2.936 2.928 C 4.812 1.053 7.355 0 10.007 0 C 12.654 0 15.199 1.056 17.079 2.928 C 20.982 6.835 20.982 13.165 17.079 17.072 C 15.203 18.947 12.66 20 10.007 20 C 7.354 20 4.807 18.951 2.936 17.072 C 1.056 15.199 -0.001 12.654 0 10 L 0 10 Z  M 13.125 10.625 L 13.125 9.375 L 6.875 9.312 L 6.875 10.562 L 13.125 10.625 Z " fill-rule="evenodd"/>
</svg>