<svg xmlns="http://www.w3.org/2000/svg" viewBox="0 0 20 20">
<path fill="rgb(0,0,0)" d=" M 8.145 8.146 L 2.691 8.146 L 2.691 6.327 L 4.894 6.327 L 0 1.433 L 1.433 0 L 6.327 4.894 L 6.327 2.691 L 8.145 2.691 L 8.145 8.146 L 8.145 8.146 L 8.145 8.146 Z  M 17.307 8.144 L 17.307 6.325 L 15.104 6.325 L 20 1.433 L 18.566 0 L 13.671 4.892 L 13.671 2.689 L 11.853 2.689 L 11.853 8.144 L 17.307 8.144 L 17.307 8.144 L 17.307 8.144 Z  M 11.854 11.855 L 11.854 17.309 L 13.673 17.309 L 13.673 15.106 L 18.567 20 L 20 18.567 L 15.106 13.673 L 17.309 13.673 L 17.309 11.855 L 11.854 11.855 L 11.854 11.855 Z  M 8.141 11.852 L 2.687 11.852 L 2.687 13.671 L 4.897 13.671 L 0 18.567 L 1.431 20 L 6.323 15.111 L 6.323 17.307 L 8.141 17.307 L 8.141 11.852 Z " fill-rule="evenodd"/>
</svg>