<svg xmlns="http://www.w3.org/2000/svg" viewBox="0 0 20 20">
<path fill="rgb(0,0,0)" d=" M 20 2 L 20 4.666 L 5.334 4.666 L 5.334 2 L 20 2 Z  M 5.334 11.334 L 20 11.334 L 20 8.667 L 5.334 8.667 L 5.334 11.334 Z  M 5.334 18 L 20 18 L 20 15.334 L 5.334 15.334 L 5.334 18 Z  M 1.333 2 C 0.979 2 0.639 2.14 0.389 2.39 C 0.139 2.641 -0.001 2.98 0 3.334 C 0 3.687 0.14 4.026 0.39 4.276 C 0.64 4.526 0.979 4.667 1.333 4.666 C 2.07 4.666 2.667 4.07 2.667 3.334 C 2.667 2.597 2.069 2 1.333 2 L 1.333 2 Z  M 1.333 8.667 C 0.979 8.667 0.64 8.807 0.39 9.057 C 0.14 9.307 0 9.646 0 10 C 0 10.736 0.596 11.334 1.333 11.334 C 2.069 11.334 2.667 10.737 2.667 10 C 2.667 9.646 2.527 9.307 2.276 9.057 C 2.026 8.807 1.686 8.667 1.333 8.667 L 1.333 8.667 Z  M 1.333 15.334 C 0.979 15.333 0.639 15.474 0.389 15.724 C 0.139 15.974 -0.001 16.314 0 16.667 C 0 17.021 0.14 17.36 0.39 17.61 C 0.64 17.86 0.979 18 1.333 18 C 1.686 18.001 2.026 17.861 2.276 17.611 C 2.527 17.361 2.667 17.021 2.667 16.667 C 2.667 15.93 2.069 15.334 1.333 15.334 L 1.333 15.334 Z "/>
</svg>