<svg xmlns="http://www.w3.org/2000/svg" viewBox="0 0 20 20">
<path fill="rgb(0,0,0)" d=" M 3.37 6.964 C 2.206 6.964 1.483 7.572 1.483 8.554 L 1.483 11.184 C 1.481 11.686 1.68 12.167 2.035 12.521 C 2.388 12.877 2.869 13.076 3.371 13.074 L 5.493 13.074 L 12.413 20 L 12.413 0 L 5.56 6.964 L 3.37 6.964 Z  M 11.198 2.964 L 11.198 17.054 L 5.995 11.852 L 3.375 11.852 C 3 11.852 2.706 11.55 2.706 11.178 L 2.706 8.556 C 2.706 8.444 2.706 8.181 3.375 8.181 L 6.075 8.181 L 11.204 2.971 L 11.198 2.964 Z "/>
</svg>