<svg xmlns="http://www.w3.org/2000/svg" viewBox="0 0 20 20">
<path fill="rgb(0,0,0)" d=" M 3.37 6.964 C 2.206 6.964 1.483 7.572 1.483 8.554 L 1.483 11.184 C 1.481 11.686 1.68 12.167 2.035 12.521 C 2.388 12.877 2.869 13.076 3.371 13.074 L 5.493 13.074 L 12.413 20 L 12.413 0 L 5.56 6.964 L 3.37 6.964 Z  M 11.198 2.964 L 11.198 17.054 L 5.995 11.852 L 3.375 11.852 C 3 11.852 2.706 11.55 2.706 11.178 L 2.706 8.556 C 2.706 8.444 2.706 8.181 3.375 8.181 L 6.075 8.181 L 11.204 2.971 L 11.198 2.964 Z  M 13.617 13.11 L 13.617 11.9 C 14.294 11.898 14.843 11.35 14.845 10.673 C 14.844 9.994 14.295 9.445 13.617 9.442 L 13.617 8.225 C 14.967 8.228 16.06 9.322 16.062 10.672 C 16.061 12.021 14.967 13.115 13.617 13.114 L 13.617 13.116 L 13.617 13.11 Z  M 18.517 10.676 C 18.517 13.361 16.332 15.544 13.648 15.544 L 13.648 14.328 C 15.66 14.328 17.3 12.688 17.3 10.675 C 17.3 8.662 15.66 7.022 13.648 7.022 L 13.648 5.813 C 16.331 5.813 18.517 7.998 18.517 10.681 L 18.517 10.681 L 18.517 10.676 Z "/>
</svg>